{
  "asset": {
    "version": "2.0",
    "generator": "Sketchup glTF Exporter v1.2.6 by Centaur"
  },
  "scene": 0,
  "scenes": [
    {
      "nodes": [
        0
      ]
    }
  ],
  "samplers": [
    {
    }
  ],
  "nodes": [
    {
      "name": "root",
      "children": [
        1,
        2,
        3,
        4,
        5,
        6,
        7,
        8,
        13
      ]
    },
    {
      "name": "corpus",
      "mesh": 0
    },
    {
      "name": "cereb",
      "mesh": 1
    },
    {
      "mesh": 2
    },
    {
      "mesh": 3
    },
    {
      "name": "pitua",
      "mesh": 4
    },
    {
      "mesh": 5
    },
    {
      "mesh": 6
    },
    {
      "children": [
        9,
        10,
        11,
        12
      ]
    },
    {
      "mesh": 7
    },
    {
      "mesh": 8
    },
    {
      "mesh": 9
    },
    {
      "mesh": 10
    },
    {
      "name": "stem",
      "mesh": 11
    }
  ],
  "materials": [
    {
      "pbrMetallicRoughness": {
        "baseColorFactor": [
          1.0,
          0.0564,
          0.0,
          1.0
        ],
        "metallicFactor": 0.1,
        "roughnessFactor": 0.9
      },
      "name": "0024_OrangeRed"
    },
    {
      "pbrMetallicRoughness": {
        "baseColorFactor": [
          0.2176,
          0.2176,
          0.2176,
          1.0
        ],
        "metallicFactor": 0.1,
        "roughnessFactor": 0.9
      },
      "name": "default material",
      "doubleSided": true
    }
  ],
  "meshes": [
    {
      "primitives": [
        {
          "attributes": {
            "POSITION": 0,
            "NORMAL": 1
          },
          "indices": 2,
          "mode": 4,
          "material": 0
        }
      ]
    },
    {
      "primitives": [
        {
          "attributes": {
            "POSITION": 0,
            "NORMAL": 1
          },
          "indices": 3,
          "mode": 4,
          "material": 0
        }
      ]
    },
    {
      "primitives": [
        {
          "attributes": {
            "POSITION": 0,
            "NORMAL": 1
          },
          "indices": 4,
          "mode": 4,
          "material": 0
        }
      ]
    },
    {
      "primitives": [
        {
          "attributes": {
            "POSITION": 0,
            "NORMAL": 1
          },
          "indices": 5,
          "mode": 4,
          "material": 0
        }
      ]
    },
    {
      "primitives": [
        {
          "attributes": {
            "POSITION": 0,
            "NORMAL": 1
          },
          "indices": 6,
          "mode": 4,
          "material": 0
        }
      ]
    },
    {
      "primitives": [
        {
          "attributes": {
            "POSITION": 0,
            "NORMAL": 1
          },
          "indices": 7,
          "mode": 4,
          "material": 0
        }
      ]
    },
    {
      "primitives": [
        {
          "attributes": {
            "POSITION": 0,
            "NORMAL": 1
          },
          "indices": 8,
          "mode": 4,
          "material": 0
        }
      ]
    },
    {
      "primitives": [
        {
          "attributes": {
            "POSITION": 0,
            "NORMAL": 1
          },
          "indices": 9,
          "mode": 4,
          "material": 1
        }
      ]
    },
    {
      "primitives": [
        {
          "attributes": {
            "POSITION": 0,
            "NORMAL": 1
          },
          "indices": 10,
          "mode": 4,
          "material": 1
        }
      ]
    },
    {
      "primitives": [
        {
          "attributes": {
            "POSITION": 0,
            "NORMAL": 1
          },
          "indices": 11,
          "mode": 4,
          "material": 1
        }
      ]
    },
    {
      "primitives": [
        {
          "attributes": {
            "POSITION": 0,
            "NORMAL": 1
          },
          "indices": 12,
          "mode": 4,
          "material": 1
        },
        {
          "attributes": {
            "POSITION": 0,
            "NORMAL": 1
          },
          "indices": 13,
          "mode": 4,
          "material": 0
        }
      ]
    },
    {
      "primitives": [
        {
          "attributes": {
            "POSITION": 0,
            "NORMAL": 1
          },
          "indices": 14,
          "mode": 4,
          "material": 0
        }
      ]
    }
  ],
  "accessors": [
    {
      "bufferView": 0,
      "componentType": 5126,
      "count": 19232,
      "type": "VEC3",
      "min": [
        0.0,
        0.0,
        -26.814608421325705
      ],
      "max": [
        32.623999462126456,
        28.536437067985535,
        7.105427357601002e-15
      ]
    },
    {
      "bufferView": 1,
      "componentType": 5126,
      "count": 19232,
      "type": "VEC3",
      "min": [
        -0.9998288764478007,
        -0.9999601766903099,
        -0.9999999999330423
      ],
      "max": [
        0.9998626636243919,
        0.9999971826444838,
        0.9999999999330423
      ]
    },
    {
      "bufferView": 2,
      "componentType": 5123,
      "count": 576,
      "type": "SCALAR"
    },
    {
      "bufferView": 2,
      "componentType": 5123,
      "count": 42942,
      "type": "SCALAR",
      "byteOffset": 1152
    },
    {
      "bufferView": 2,
      "componentType": 5123,
      "count": 9549,
      "type": "SCALAR",
      "byteOffset": 87036
    },
    {
      "bufferView": 2,
      "componentType": 5123,
      "count": 5736,
      "type": "SCALAR",
      "byteOffset": 106134
    },
    {
      "bufferView": 2,
      "componentType": 5123,
      "count": 672,
      "type": "SCALAR",
      "byteOffset": 117606
    },
    {
      "bufferView": 2,
      "componentType": 5123,
      "count": 8487,
      "type": "SCALAR",
      "byteOffset": 118950
    },
    {
      "bufferView": 2,
      "componentType": 5123,
      "count": 3996,
      "type": "SCALAR",
      "byteOffset": 135924
    },
    {
      "bufferView": 2,
      "componentType": 5123,
      "count": 8487,
      "type": "SCALAR",
      "byteOffset": 143916
    },
    {
      "bufferView": 2,
      "componentType": 5123,
      "count": 9546,
      "type": "SCALAR",
      "byteOffset": 160890
    },
    {
      "bufferView": 2,
      "componentType": 5123,
      "count": 3993,
      "type": "SCALAR",
      "byteOffset": 179982
    },
    {
      "bufferView": 2,
      "componentType": 5123,
      "count": 5712,
      "type": "SCALAR",
      "byteOffset": 187968
    },
    {
      "bufferView": 2,
      "componentType": 5123,
      "count": 24,
      "type": "SCALAR",
      "byteOffset": 199392
    },
    {
      "bufferView": 2,
      "componentType": 5123,
      "count": 10110,
      "type": "SCALAR",
      "byteOffset": 199440
    }
  ],
  "bufferViews": [
    {
      "buffer": 0,
      "byteLength": 230784,
      "target": 34962,
      "byteStride": 12
    },
    {
      "buffer": 0,
      "byteOffset": 230784,
      "byteLength": 230784,
      "target": 34962,
      "byteStride": 12
    },
    {
      "buffer": 0,
      "byteOffset": 461568,
      "byteLength": 219660,
      "target": 34963
    }
  ],
  "buffers": [
    {
      "uri": "data:application/octet-stream;base64,",
      "byteLength": 681228
    }
  ]
}